<svg viewBox="0 0 20 20" xmlns="http://www.w3.org/2000/svg"><path d="M2.908 5.654a.356.356 0 0 1 .491.017l1.876 1.752 1.244-1.15a.357.357 0 0 1 .486 0L8.41 7.932V2.283H.837V7.93zM8.64 1.462c.335 0 .609.263.609.586v6.609a.6.6 0 0 1-.609.592H.608A.6.6 0 0 1 0 8.657V2.048a.6.6 0 0 1 .614-.586zM5.727 4.566a1.095 1.095 0 1 1 1.897-1.094 1.095 1.095 0 0 1-1.897 1.094zm7.932 1.088a.356.356 0 0 1 .492.017l1.875 1.752 1.245-1.15a.357.357 0 0 1 .485 0l1.407 1.658V2.283h-7.574V7.93zm5.733-4.192c.335 0 .608.263.608.586v6.609a.6.6 0 0 1-.608.592H11.36a.6.6 0 0 1-.609-.592V2.048a.6.6 0 0 1 .614-.586zm-2.914 3.104a1.095 1.095 0 1 1 1.898-1.094 1.095 1.095 0 0 1-1.898 1.094zM2.908 14.943a.356.356 0 0 1 .491.017l1.876 1.752 1.244-1.15a.357.357 0 0 1 .486 0L8.41 17.22v-5.648H.837v5.648zm5.732-4.192c.335 0 .609.263.609.586v6.609a.6.6 0 0 1-.609.592H.608A.6.6 0 0 1 0 17.946v-6.609a.6.6 0 0 1 .614-.586zm-2.913 3.104a1.095 1.095 0 1 1 1.897-1.094 1.095 1.095 0 0 1-1.897 1.094zm7.932 1.088a.356.356 0 0 1 .492.017l1.875 1.752 1.245-1.15a.357.357 0 0 1 .485 0l1.407 1.658v-5.648h-7.574v5.648zm5.733-4.192c.335 0 .608.263.608.586v6.609a.6.6 0 0 1-.608.592H11.36a.6.6 0 0 1-.609-.592v-6.609a.6.6 0 0 1 .614-.586zm-2.914 3.104a1.095 1.095 0 1 1 1.898-1.094 1.095 1.095 0 0 1-1.898 1.094z"/></svg>