<svg viewBox="0 0 20 20" xmlns="http://www.w3.org/2000/svg"><path d="M12.776 6.594q-.358-.452-.979-.659-.602-.225-1.148-.225-.32 0-.658.075-.34.075-.64.245-.301.15-.49.414-.188.263-.188.64 0 .601.452.921.452.32 1.129.546.696.226 1.487.452.79.225 1.467.64.697.413 1.148 1.11.452.696.452 1.863 0 1.11-.414 1.938-.414.828-1.13 1.373-.695.546-1.636.81Q10.706 17 9.67 17q-1.299 0-2.409-.395-1.11-.395-2.07-1.28L7.28 13.03q.452.602 1.129.94.696.32 1.43.32.358 0 .715-.075.376-.094.659-.263.3-.17.47-.433.188-.264.188-.621 0-.602-.47-.941-.452-.358-1.148-.602-.696-.245-1.505-.49-.81-.244-1.506-.658-.696-.414-1.166-1.091-.452-.678-.452-1.788 0-1.073.414-1.882.433-.809 1.129-1.355.715-.545 1.637-.809Q9.727 3 10.705 3q1.13 0 2.183.32 1.054.32 1.901 1.072z"/></svg>