<svg viewBox="0 0 59.605 8.064" xmlns="http://www.w3.org/2000/svg"><path fill="#fff" d="M3.186 0q.497 0 .963.17.465.169.846.465.381.296.625.667.243.37.296.793.01.053-.01.075-.011.02-.053.02l-.477.043q-.031.01-.053-.01-.01-.022-.02-.064-.18-.74-.752-1.185Q3.99.519 3.207.519q-1.25 0-1.916.9-.656.899-.656 2.634 0 1.683.656 2.583.667.9 1.99.9.815 0 1.344-.382.53-.391.847-1.217.02-.042.074-.032l.423.117q.021.01.032.032.01.02 0 .063-.106.339-.297.635-.18.296-.434.54-.254.233-.571.413-.318.18-.688.264-.37.095-.773.095-1.026 0-1.756-.476Q.762 7.112.38 6.223 0 5.323 0 4.053t.381-2.18Q.762.963 1.471.487 2.191 0 3.186 0zM18.28 7.8q.032.053 0 .106t-.084.053h-.413q-.074 0-.138-.106l-1.47-3.503q-.043-.106-.223-.106h-2.18q-.074 0-.106.032-.021.031-.021.084v3.472q0 .127-.117.127h-.37q-.064 0-.095-.022-.022-.031-.022-.084V.223q0-.117.106-.117h2.784q1.164 0 1.81.497.645.487.645 1.471 0 .635-.243 1.059-.244.412-.614.645-.36.233-.73.328-.075.01-.043.085L18.28 7.8zm-2.71-4.054q1.09 0 1.641-.37.55-.37.55-1.228 0-.783-.465-1.164-.466-.38-1.386-.38h-2.138q-.127 0-.127.084V3.64q0 .105.084.105h1.842zM26.076.106q.095 0 .095.116v7.6q0 .073-.021.105t-.117.032h-.338q-.074 0-.106-.022-.021-.031-.021-.095V.222q0-.116.106-.116zm7.041.084q0-.042.01-.063.022-.021.075-.021h5.503q.053 0 .064.021.021.021.021.063v.34q0 .084-.095.084h-2.223q-.106 0-.106.095v7.133q0 .117-.105.117h-.392q-.116 0-.116-.117V.71q0-.095-.106-.095h-2.434q-.096 0-.096-.085zM46.25.106q.096 0 .096.116v7.6q0 .073-.022.105-.02.032-.116.032h-.339q-.074 0-.106-.022-.02-.031-.02-.095V.222q0-.116.105-.116zM56.784 0q.498 0 .963.17.466.169.847.465.381.296.624.667.244.37.297.793.01.053-.01.075-.011.02-.054.02l-.476.043q-.032.01-.053-.01-.01-.022-.021-.064-.18-.74-.751-1.185-.561-.455-1.345-.455-1.248 0-1.915.9-.656.899-.656 2.634 0 1.683.656 2.583.667.9 1.99.9.814 0 1.344-.382.529-.391.846-1.217.021-.042.074-.032l.424.117q.02.01.031.032.011.02 0 .063-.105.339-.296.635-.18.296-.434.54-.254.233-.571.413-.318.18-.688.264-.37.095-.773.095-1.026 0-1.757-.476-.72-.476-1.1-1.365-.381-.9-.381-2.17t.38-2.18q.382-.91 1.09-1.386Q55.79 0 56.785 0z"/></svg>