<svg viewBox="0 0 20 20" xmlns="http://www.w3.org/2000/svg"><path d="M8.478 13.893a6.587 6.587 0 01-1.354-.923.37.37 0 01-.123-.308l.185-.369H7.8c.615.739 1.292 1.046 2.277 1.046.615 0 1.107-.184 1.415-.369.369-.246.369-.738.369-.8.123-.738-.554-1.292-.554-1.292H12.6c.185.43.246.738.246 1.046v.492l-.369.739c-.37.492-.677.615-.984.738-.462.224-.964.35-1.477.369-.615 0-1.107-.185-1.538-.37zM8.355 9.34l-.492-.43c-.246-.308-.308-.493-.308-.985 0-.43.062-.8.308-1.107.246-.37.615-.616.984-.8a3.876 3.876 0 012.892 0c.394.114.754.326 1.046.615l.184.43c0 .062.123.247-.123.431-.246.123-.554.062-.615 0a1.846 1.846 0 00-.738-.615c-.246-.123-.616-.185-1.23-.246-.432 0-.862.123-1.231.37-.493.368-.616.491-.616.922 0 .492.308.615.739.923.369.246 2.991 1.249 3.445 2.03h-1.292z"/></svg>