<svg viewBox="0 0 20 20" xmlns="http://www.w3.org/2000/svg"><path d="M3.949 17h-.555q-.425 0-.602-.212-.177-.213-.083-.638.095-.472.378-.637.295-.177 1.204-.177h.755L7.313 4.7h-.756q-.885 0-1.11-.177-.223-.19-.129-.673.094-.437.354-.638Q5.944 3 6.392 3h10.281q.402 0 .556.248.153.236.059.696l-.602 2.786q-.13.614-.355.85-.224.236-.684.236-.484 0-.614-.26t.07-1.168l.355-1.688h-6.28l-.85 3.978h3.093l.142-.626q.13-.637.354-.885.224-.248.649-.248.413 0 .507.272.107.26-.07 1.133l-.473 2.195q-.188.886-.413 1.134-.212.248-.637.248-.425 0-.52-.284-.094-.283.071-1.098l.095-.413H8.033l-1.121 5.23h6.28l.413-1.913q.189-.909.425-1.168.248-.26.732-.26.448 0 .578.248.13.236-.012.909l-.637 2.974q-.083.425-.343.65-.26.224-.649.224z"/></svg>